<?xml version="1.0" encoding="UTF-8" standalone="no"?>
<!DOCTYPE svg PUBLIC "-//W3C//DTD SVG 1.1//EN" "http://www.w3.org/Graphics/SVG/1.1/DTD/svg11.dtd">
<svg width="100%" height="100%" viewBox="0 0 134 134" version="1.1" xmlns="http://www.w3.org/2000/svg" xmlns:xlink="http://www.w3.org/1999/xlink" xml:space="preserve" xmlns:serif="http://www.serif.com/" style="fill-rule:evenodd;clip-rule:evenodd;stroke-linejoin:round;stroke-miterlimit:2;">
    <g transform="matrix(1.33333,0,0,1.33333,0,0)">
        <g id="_100x100" serif:id="100x100" transform="matrix(3.30603,0,0,2.64483,-33.4052,-39.1379)">
            <rect x="10.104" y="14.798" width="30.248" height="37.81" style="fill:none;"/>
            <clipPath id="_clip1">
                <rect x="10.104" y="14.798" width="30.248" height="37.81"/>
            </clipPath>
            <g clip-path="url(#_clip1)">
                <g transform="matrix(0.096496,0,0,0.12062,-78.9887,-35.8317)">
                    <g id="Twitter">
                        <path id="Twitter1" serif:id="Twitter" d="M1077.91,527.67C1076.75,522.842 1076.13,517.803 1076.13,512.621C1076.13,477.295 1104.81,448.615 1140.14,448.615C1158.62,448.615 1175.28,456.463 1186.96,469.006L1186.96,469.006C1199.93,467.368 1216.01,461.002 1228.06,453.604C1228.06,453.604 1222.36,475.303 1200.2,489.069C1212.11,487.953 1225.88,484.272 1236.74,479.142C1236.74,479.142 1228.55,501.423 1204.49,512.621L1204.49,512.621C1205.36,629.47 1123.07,703.075 1022.56,704.323C1002.12,704.577 978.687,701.055 958.096,693.151C945.685,688.387 934.457,682.797 923.282,675.369C957.771,679.352 989.464,671.142 1018.13,648.242C1018.13,648.242 1003.12,650.237 983.719,638.565C964.791,627.175 957.911,603.885 957.911,603.885C968.053,605.672 977.829,605.625 986.944,602.273C964.346,602.191 933.039,570.998 934.873,538.341C944.852,545.395 964.453,546.903 964.453,546.903C945.786,535.272 936.672,515.275 935.599,498.895C934.192,477.414 944.545,460.526 944.545,460.526C1000.6,526.594 1066.55,527.957 1077.91,527.67Z" style="fill:rgb(0,166,247);"/>
                    </g>
                </g>
            </g>
        </g>
    </g>
</svg>
