<?xml version="1.0" encoding="UTF-8" standalone="no"?>
<!DOCTYPE svg PUBLIC "-//W3C//DTD SVG 1.1//EN" "http://www.w3.org/Graphics/SVG/1.1/DTD/svg11.dtd">
<svg width="100%" height="100%" viewBox="0 0 134 134" version="1.1" xmlns="http://www.w3.org/2000/svg" xmlns:xlink="http://www.w3.org/1999/xlink" xml:space="preserve" xmlns:serif="http://www.serif.com/" style="fill-rule:evenodd;clip-rule:evenodd;stroke-linejoin:round;stroke-miterlimit:2;">
    <g transform="matrix(1.33333,0,0,1.33333,0,0)">
        <g id="_100x100" serif:id="100x100" transform="matrix(3.30603,0,0,2.64483,-33.4052,-39.1379)">
            <rect x="10.104" y="14.798" width="30.248" height="37.81" style="fill:none;"/>
            <clipPath id="_clip1">
                <rect x="10.104" y="14.798" width="30.248" height="37.81"/>
            </clipPath>
            <g clip-path="url(#_clip1)">
                <g id="twitch" transform="matrix(0.251482,0,0,0.314352,-115.02,-126.568)">
                    <g transform="matrix(1,0,0,1,119.963,0.186905)">
                        <path d="M494.719,522.097L462.905,553.912L441.263,553.912L425.377,569.797L409.627,569.797L409.796,553.912L380.733,553.912L380.733,472.244L390.751,449.519L494.719,449.519L494.719,522.097Z" style="fill:rgb(142,36,170);"/>
                    </g>
                    <g transform="matrix(1,0,0,1,115.046,0)">
                        <path d="M482.098,516.112L466.026,532.184L437.538,532.184L422.132,547.59L422.132,532.184L403.188,532.184L403.188,462.37L482.098,462.37L482.098,516.112ZM437.894,481.514L422.084,481.514L422.084,512.962L437.894,512.962L437.894,481.514ZM463.162,481.514L447.352,481.514L447.352,512.962L463.162,512.962L463.162,481.514Z" style="fill:white;"/>
                    </g>
                </g>
            </g>
        </g>
    </g>
</svg>
